<svg id="call-calling_linear" data-name="call-calling/linear" xmlns="http://www.w3.org/2000/svg" width="40.444" height="40.444" viewBox="0 0 40.444 40.444">
  <g id="vuesax_linear_call-calling" data-name="vuesax/linear/call-calling">
    <g id="call-calling">
      <g id="call-calling-2" data-name="call-calling" transform="translate(3.37 3.37)">
        <path id="Vector" d="M0,27.519a4.289,4.289,0,0,0,.421,1.837,6.953,6.953,0,0,0,1.146,1.719,7.6,7.6,0,0,0,2.764,1.988,8.462,8.462,0,0,0,3.286.64,14.043,14.043,0,0,0,5.494-1.23,29.6,29.6,0,0,0,5.8-3.337,48.449,48.449,0,0,0,5.527-4.718,47.882,47.882,0,0,0,4.7-5.51,30.043,30.043,0,0,0,3.3-5.746,14.194,14.194,0,0,0,1.213-5.51A8.718,8.718,0,0,0,33.046,4.4a7.756,7.756,0,0,0-1.938-2.814A4.937,4.937,0,0,0,27.6,0a3.167,3.167,0,0,0-1.365.3,2.747,2.747,0,0,0-1.129.944L21.2,6.757a5.767,5.767,0,0,0-.674,1.18,2.664,2.664,0,0,0-.236,1.028,2.288,2.288,0,0,0,.354,1.2,5.732,5.732,0,0,0,.944,1.2l1.281,1.331a.9.9,0,0,1,.27.674,1.53,1.53,0,0,1-.051.388c-.051.135-.1.236-.135.337a13.984,13.984,0,0,1-1.567,2.157c-.758.876-1.567,1.769-2.443,2.663-.91.893-1.786,1.719-2.679,2.477a12.933,12.933,0,0,1-2.174,1.55c-.084.034-.185.084-.3.135a1.164,1.164,0,0,1-.421.067.927.927,0,0,1-.691-.286l-1.281-1.264a5.17,5.17,0,0,0-1.213-.944,2.244,2.244,0,0,0-1.2-.354,2.689,2.689,0,0,0-1.028.219,6.517,6.517,0,0,0-1.18.657L1.2,25.126A2.556,2.556,0,0,0,.27,26.2,3.457,3.457,0,0,0,0,27.519Z" transform="translate(0.051)" fill="none" stroke="#000" stroke-width="2"/>
        <path id="Vector-2" data-name="Vector" d="M0,5.9A6.682,6.682,0,0,1,1.972,2.073,5.756,5.756,0,0,1,5.9,0" transform="translate(5.898 5.898)" fill="none" stroke="#000" stroke-linecap="round" stroke-linejoin="round" stroke-width="2"/>
        <path id="Vector-3" data-name="Vector" d="M0,11.8A11.787,11.787,0,0,1,11.8,0" fill="none" stroke="#000" stroke-linecap="round" stroke-linejoin="round" stroke-width="2"/>
      </g>
      <path id="Vector-4" data-name="Vector" d="M40.444,0H0V40.444H40.444Z" fill="none" opacity="0"/>
    </g>
  </g>
</svg>
