<svg xmlns="http://www.w3.org/2000/svg" width="36.548" height="36.548" viewBox="0 0 36.548 36.548">
  <g id="_708" data-name="708" transform="translate(0)">
    <path id="Path_55746" data-name="Path 55746" d="M23.535,18.466l-.014.114c-3.349-1.669-3.7-1.891-4.131-1.243-.3.449-1.174,1.468-1.438,1.77s-.531.32-.984.114A12.359,12.359,0,0,1,13.31,16.96a13.816,13.816,0,0,1-2.528-3.152c-.446-.771.487-.88,1.337-2.488a.837.837,0,0,0-.038-.8c-.114-.228-1.023-2.467-1.4-3.359-.365-.889-.742-.777-1.023-.777a2.267,2.267,0,0,0-2.083.524c-2.458,2.7-1.838,5.488.265,8.452,4.133,5.409,6.335,6.4,10.361,7.788a6.3,6.3,0,0,0,2.863.184c.874-.139,2.691-1.1,3.07-2.172a3.769,3.769,0,0,0,.274-2.17C24.291,18.786,23.992,18.671,23.535,18.466Z" transform="translate(3.124 3.322)" fill="#000"/>
    <path id="Path_55747" data-name="Path 55747" d="M31.248,5.252C19.539-6.067.161,2.143.154,18.111a18.024,18.024,0,0,0,2.429,9.053L0,36.548l9.647-2.516c12.038,6.5,26.894-2.132,26.9-15.912A17.96,17.96,0,0,0,31.225,5.312ZM33.5,18.07A15.162,15.162,0,0,1,10.644,31.02l-.548-.326L4.386,32.179l1.53-5.551-.364-.571A15.1,15.1,0,0,1,29.075,7.425,14.905,14.905,0,0,1,33.5,18.07Z" transform="translate(0 0)" fill="#000"/>
  </g>
</svg>
