<svg width="30" height="30" viewBox="0 0 30 30" fill="none" xmlns="http://www.w3.org/2000/svg">
<path d="M27.5806 8.73389H27.0968V9.70164H27.5806C27.7742 9.70164 27.9194 9.75004 28.0645 9.79839L15 20.6855L1.98389 9.75004C2.12905 9.70164 2.2742 9.65329 2.41936 9.65329H8.70969V8.68555H2.41936C1.06449 8.68549 0 9.75004 0 11.1048V25.621C0 26.9758 1.06449 28.0404 2.41936 28.0404H27.5806C28.9355 28.0404 30 26.9759 30 25.621V11.1048C30 9.79839 28.9355 8.73389 27.5806 8.73389ZM0.967744 25.6694V11.1533C0.967744 10.8629 1.06449 10.621 1.20971 10.3791L9.82259 17.5887L1.1129 26.2984C1.01615 26.1049 0.967744 25.9113 0.967744 25.6694ZM27.5806 27.121H2.41936C2.17745 27.121 1.98389 27.0726 1.79033 26.9758L10.5484 18.2178L15 21.9436L19.4516 18.2178L28.2096 26.9758C28.0161 27.0726 27.8226 27.121 27.5806 27.121ZM29.0323 25.6694C29.0323 25.9113 28.9839 26.1049 28.8871 26.2984L20.2258 17.5887L28.8387 10.4275C28.9839 10.621 29.0323 10.9113 29.0323 11.1533V25.6694Z" fill="#4D7785"/>
<path d="M15.4839 24.2178H14.5162V25.1855H15.4839V24.2178Z" fill="#4D7785"/>
<path d="M13.5484 24.2178H12.5807V25.1855H13.5484V24.2178Z" fill="#4D7785"/>
<path d="M17.4193 24.2178H16.4516V25.1855H17.4193V24.2178Z" fill="#4D7785"/>
<path d="M23.2742 1.95966H12.629C10.7419 1.95966 9.2419 3.45968 9.2419 5.34676V8.24999C9.1935 9.99192 10.5 11.3951 12.1451 11.6371L12.7742 15.0726L16.2097 11.6371H23.2742C25.1613 11.6371 26.6613 10.1371 26.6613 8.24999V5.34676C26.6613 3.45968 25.1613 1.95966 23.2742 1.95966ZM25.6451 8.24999C25.6451 9.60486 24.5807 10.6693 23.2258 10.6693H15.7742L13.4032 13.0403L12.9678 10.6693H12.5807C11.2742 10.6693 10.2097 9.55645 10.2097 8.24999V5.34676H10.1613C10.1613 3.99189 11.2258 2.9274 12.5807 2.9274H23.2258C24.5807 2.9274 25.6452 3.99189 25.6452 5.34676L25.6451 8.24999Z" fill="#4D7785"/>
<path d="M22.8871 4.86292H12.871V5.83066H22.8871V4.86292Z" fill="#4D7785"/>
<path d="M18.3871 7.76611H17.4193V8.73386H18.3871V7.76611Z" fill="#4D7785"/>
<path d="M16.4516 7.76611H15.4839V8.73386H16.4516V7.76611Z" fill="#4D7785"/>
<path d="M20.3225 7.76611H19.3548V8.73386H20.3225V7.76611Z" fill="#4D7785"/>
</svg>
