<svg width="31" height="31" viewBox="0 0 31 31" fill="none" xmlns="http://www.w3.org/2000/svg">
<g clip-path="url(#clip0_50_2650)">
<path d="M30.7932 14.9217C27.9756 11.489 22.0104 7.48297 15.5 7.48297C8.96623 7.48297 3.0008 11.5162 0.206848 14.9217C-0.0689913 15.2579 -0.0689913 15.7421 0.206848 16.0783C3.09119 19.5941 9.07036 23.5171 15.5 23.5171C22.1581 23.5171 28.0979 19.3621 30.7932 16.0784C31.069 15.7421 31.069 15.2579 30.7932 14.9217ZM21.6935 15.5C21.6935 18.9151 18.9151 21.6936 15.4999 21.6936C12.0847 21.6936 9.30638 18.9149 9.30638 15.5C9.30638 12.0849 12.0848 9.30644 15.4999 9.30644C18.9154 9.3065 21.6935 12.0853 21.6935 15.5ZM2.14338 15.5002C3.1696 14.4337 5.64401 12.1318 9.11753 10.6545C6.93768 13.5187 6.93683 17.4789 9.11649 20.3442C6.47547 19.2249 4.0221 17.4564 2.14338 15.5002ZM21.8825 20.3455C24.0623 17.4812 24.0631 13.5211 21.8835 10.6558C24.5244 11.7751 26.9778 13.5437 28.8566 15.4997C27.8304 16.5664 25.356 18.8681 21.8825 20.3455Z" fill="#4D7785"/>
<path d="M12.4 15.5C12.4 17.2094 13.7906 18.6 15.5 18.6C17.2093 18.6 18.6 17.2094 18.6 15.5C18.6 13.7906 17.2093 12.4 15.5 12.4C13.7906 12.4 12.4 13.7906 12.4 15.5ZM16.7765 15.5C16.7765 16.2039 16.2038 16.7765 15.5 16.7765C14.7961 16.7765 14.2235 16.2039 14.2235 15.5C14.2235 14.7961 14.7961 14.2236 15.5 14.2236C16.2038 14.2236 16.7765 14.7961 16.7765 15.5Z" fill="#4D7785"/>
<path d="M15.5 3.95098C16.0035 3.95098 16.4118 3.54275 16.4118 3.03922V0.911765C16.4118 0.408227 16.0035 0 15.5 0C14.9965 0 14.5882 0.408227 14.5882 0.911765V3.03922C14.5882 3.54275 14.9965 3.95098 15.5 3.95098Z" fill="#4D7785"/>
<path d="M20.9402 5.1704C21.3774 5.41974 21.9343 5.26772 22.1839 4.83007L23.3973 2.70262C23.6467 2.26522 23.4945 1.70843 23.057 1.45891C22.6195 1.20946 22.0628 1.36172 21.8133 1.79925L20.5999 3.9267C20.3505 4.36404 20.5028 4.92088 20.9402 5.1704Z" fill="#4D7785"/>
<path d="M8.8161 4.83012C9.06555 5.26753 9.62234 5.41985 10.0598 5.17039C10.4972 4.92093 10.6495 4.36409 10.4001 3.92669L9.1867 1.79923C8.93724 1.36183 8.38033 1.20951 7.94299 1.45896C7.50559 1.70842 7.35326 2.26527 7.60272 2.70267L8.8161 4.83012Z" fill="#4D7785"/>
<path d="M15.5 27.049C14.9965 27.049 14.5882 27.4572 14.5882 27.9608V30.0882C14.5882 30.5918 14.9965 31 15.5 31C16.0035 31 16.4118 30.5918 16.4118 30.0882V27.9608C16.4118 27.4572 16.0035 27.049 15.5 27.049Z" fill="#4D7785"/>
<path d="M10.0598 25.8296C9.6224 25.5802 9.06562 25.7325 8.8161 26.1699L7.60272 28.2973C7.35326 28.7347 7.50559 29.2916 7.94299 29.541C8.38045 29.7905 8.93724 29.6381 9.1867 29.2008L10.4001 27.0733C10.6496 26.6359 10.4972 26.0791 10.0598 25.8296Z" fill="#4D7785"/>
<path d="M22.1839 26.1699C21.9344 25.7324 21.3775 25.5802 20.9402 25.8296C20.5028 26.079 20.3505 26.6359 20.5999 27.0733L21.8133 29.2007C22.0627 29.6381 22.6195 29.7905 23.057 29.5411C23.4944 29.2916 23.6467 28.7348 23.3973 28.2974L22.1839 26.1699Z" fill="#4D7785"/>
</g>
<defs>
<clipPath id="clip0_50_2650">
<rect width="31" height="31" fill="white"/>
</clipPath>
</defs>
</svg>
