<svg width="22" height="22" viewBox="0 0 22 22" fill="none" xmlns="http://www.w3.org/2000/svg">
<path d="M10.672 2.63184C11.3702 2.63184 13.7378 2.82745 14.8553 5.32745C15.229 6.16868 15.1395 7.5985 15.0658 8.74675L15.0641 8.78798C15.0544 8.91605 15.0483 9.03184 15.043 9.14763C15.1297 9.1938 15.2273 9.21563 15.3255 9.21078C15.5369 9.19938 15.7904 9.12657 16.0544 8.99938C16.156 8.94906 16.2682 8.9238 16.3816 8.9257C16.5097 8.9257 16.6351 8.94587 16.7404 8.98885C17.057 9.09412 17.2579 9.32657 17.2579 9.58008C17.2693 9.89675 16.9834 10.1722 16.4027 10.4038C16.3404 10.4239 16.2544 10.4573 16.1606 10.488C15.8421 10.5836 15.3562 10.7415 15.2193 11.059C15.1562 11.2178 15.1763 11.4283 15.3053 11.6704L15.3158 11.6818C15.3579 11.7774 16.393 14.1336 18.6965 14.5143C18.781 14.5279 18.8576 14.5718 18.912 14.6379C18.9665 14.7039 18.9949 14.7875 18.9921 14.8731C18.9921 14.9257 18.9807 14.9774 18.9606 15.0318C18.7913 15.4327 18.0632 15.7292 16.7413 15.9274C16.7 15.9915 16.657 16.1924 16.6255 16.3301C16.6062 16.4564 16.5728 16.5836 16.5316 16.7196C16.4781 16.9108 16.3413 17.0046 16.1404 17.0046H16.1193C15.9914 16.9987 15.8643 16.9814 15.7395 16.9529C15.4444 16.8892 15.1432 16.8574 14.8413 16.8582C14.6307 16.8582 14.4202 16.8687 14.1992 16.9108C13.7755 16.9845 13.4062 17.238 12.9834 17.5336C12.3807 17.9555 11.6948 18.4424 10.6597 18.4424C10.6176 18.4424 10.5755 18.4318 10.5316 18.4318H10.4272C9.39126 18.4318 8.71582 17.9555 8.11407 17.5231C7.69214 17.2266 7.33336 16.9739 6.90968 16.8994C6.69329 16.8671 6.47495 16.8495 6.25617 16.8467C5.87459 16.8467 5.57986 16.9099 5.3588 16.952C5.20968 16.9827 5.08337 17.0038 4.97723 17.0038C4.88472 17.0108 4.7927 16.985 4.71731 16.931C4.64192 16.8769 4.58797 16.798 4.56494 16.7082C4.52284 16.5731 4.50266 16.4336 4.47109 16.3082C4.43775 16.1801 4.39652 15.9608 4.35442 15.9064C3.00091 15.7494 2.27284 15.4529 2.10442 15.0415C2.08116 14.9916 2.06804 14.9377 2.06582 14.8827C2.06245 14.797 2.09072 14.7131 2.14523 14.647C2.19975 14.5808 2.27671 14.537 2.36144 14.5239C4.66407 14.1432 5.69915 11.788 5.74214 11.6889L5.75354 11.6687C5.88073 11.4257 5.91144 11.2125 5.83775 11.0555C5.70091 10.7494 5.21407 10.5915 4.89916 10.4853C4.81536 10.4642 4.73349 10.436 4.65442 10.4011C3.87372 10.0941 3.76758 9.74499 3.81056 9.50289C3.87372 9.16605 4.28512 8.94412 4.63424 8.94412C4.73687 8.94412 4.82459 8.96429 4.90442 8.99675C5.20003 9.13271 5.46144 9.20815 5.68337 9.20815C5.79707 9.21232 5.90989 9.18662 6.01056 9.13359L5.97459 8.73184C5.90442 7.58534 5.81494 6.15727 6.19126 5.32043C7.27547 2.83271 9.63775 2.64148 10.3351 2.64148L10.629 2.63184H10.672Z" fill="white"/>
</svg>
