<svg width="17" height="15" viewBox="0 0 17 15" fill="none" xmlns="http://www.w3.org/2000/svg">
<path fill-rule="evenodd" clip-rule="evenodd" d="M0 6.59245C0 3.48493 -1.10149e-07 1.93076 1.08293 0.965794C2.16493 -9.82351e-08 3.90759 0 7.39199 0H9.23998C12.7244 0 14.467 -9.82351e-08 15.549 0.965794C16.632 1.93076 16.632 3.48493 16.632 6.59245V8.24056C16.632 11.3481 16.632 12.9022 15.549 13.8672C14.467 14.833 12.7244 14.833 9.23998 14.833H7.39199C3.90759 14.833 2.16493 14.833 1.08293 13.8672C-1.10149e-07 12.9022 0 11.3481 0 8.24056V6.59245ZM13.86 3.70825C13.86 4.03608 13.7139 4.35048 13.454 4.5823C13.1941 4.81411 12.8416 4.94434 12.474 4.94434C12.1064 4.94434 11.7539 4.81411 11.4939 4.5823C11.234 4.35048 11.088 4.03608 11.088 3.70825C11.088 3.38042 11.234 3.06602 11.4939 2.83421C11.7539 2.6024 12.1064 2.47217 12.474 2.47217C12.8416 2.47217 13.1941 2.6024 13.454 2.83421C13.7139 3.06602 13.86 3.38042 13.86 3.70825ZM10.164 8.24056C10.164 8.67767 9.96928 9.09687 9.62271 9.40595C9.27615 9.71503 8.8061 9.88867 8.31598 9.88867C7.82587 9.88867 7.35582 9.71503 7.00925 9.40595C6.66269 9.09687 6.46799 8.67767 6.46799 8.24056C6.46799 7.80345 6.66269 7.38425 7.00925 7.07517C7.35582 6.76609 7.82587 6.59245 8.31598 6.59245C8.8061 6.59245 9.27615 6.76609 9.62271 7.07517C9.96928 7.38425 10.164 7.80345 10.164 8.24056ZM12.012 8.24056C12.012 9.11477 11.6226 9.95318 10.9294 10.5713C10.2363 11.1895 9.29622 11.5368 8.31598 11.5368C7.33575 11.5368 6.39566 11.1895 5.70252 10.5713C5.00939 9.95318 4.61999 9.11477 4.61999 8.24056C4.61999 7.36635 5.00939 6.52794 5.70252 5.90978C6.39566 5.29162 7.33575 4.94434 8.31598 4.94434C9.29622 4.94434 10.2363 5.29162 10.9294 5.90978C11.6226 6.52794 12.012 7.36635 12.012 8.24056Z" fill="white"/>
</svg>
