<svg width="22" height="22" viewBox="0 0 22 22" fill="none" xmlns="http://www.w3.org/2000/svg">
<path d="M18.9207 5.57904C16.1707 1.31588 10.5391 0.0527259 6.18381 2.69746C1.93381 5.3422 0.565386 11.1054 3.31539 15.3554L3.53907 15.6975L2.61802 19.1448L6.06539 18.2238L6.40749 18.4475C7.89433 19.2501 9.51276 19.7106 11.118 19.7106C12.8417 19.7106 14.5654 19.2501 16.0522 18.329C20.3022 15.5659 21.5654 9.92115 18.9207 5.55273V5.57904ZM16.5128 14.4475C16.0522 15.1317 15.4733 15.5922 14.6707 15.7106C14.2101 15.7106 13.6312 15.9343 11.3417 15.0264C9.39433 14.1054 7.77591 12.6054 6.63118 10.8817C5.94697 10.079 5.5917 9.03957 5.48644 8.00009C5.48644 7.07904 5.82854 6.27641 6.40749 5.69746C6.63118 5.47378 6.86802 5.35536 7.0917 5.35536H7.67065C7.89433 5.35536 8.13118 5.35536 8.2496 5.81588C8.47328 6.39483 9.05223 7.77641 9.05223 7.89483C9.17065 8.01325 9.11802 8.89483 8.5917 9.39483C8.30223 9.72378 8.2496 9.73694 8.36802 9.97378C8.82854 10.658 9.40749 11.3554 9.97328 11.9343C10.6575 12.5133 11.3549 12.9738 12.1575 13.3159C12.3812 13.4343 12.618 13.4343 12.7364 13.1975C12.8549 12.9738 13.4207 12.3948 13.6575 12.158C13.8812 11.9343 13.9996 11.9343 14.2364 12.0396L16.0785 12.9606C16.3022 13.079 16.5391 13.1843 16.6575 13.3027C16.7759 13.6448 16.7759 14.1054 16.5391 14.4475H16.5128Z" fill="white"/>
</svg>
