<svg xmlns="http://www.w3.org/2000/svg" width="20.914" height="21.209" viewBox="0 0 20.914 21.209">
  <g id="Group_175902" data-name="Group 175902" transform="translate(-2.2 -2)">
    <path id="Path_67418" data-name="Path 67418" d="M18.561,23.209H6.745A4.558,4.558,0,0,1,2.2,18.664v-.151L2.654,6.393A4.527,4.527,0,0,1,7.2,2H18.107a4.527,4.527,0,0,1,4.545,4.393l.454,12.119a4.384,4.384,0,0,1-1.212,3.257,4.313,4.313,0,0,1-3.181,1.439ZM7.2,3.515a3.01,3.01,0,0,0-3.03,2.878L3.715,18.664a3.039,3.039,0,0,0,3.03,3.03H18.713a2.818,2.818,0,0,0,2.121-.985,3.3,3.3,0,0,0,.833-2.2L21.212,6.393a2.959,2.959,0,0,0-3.03-2.878Z" fill="#fff"/>
    <path id="Path_67419" data-name="Path 67419" d="M14.3,12.06A5.27,5.27,0,0,1,9,6.757a.757.757,0,0,1,1.515,0,3.787,3.787,0,1,0,7.575,0,.757.757,0,0,1,1.515,0A5.27,5.27,0,0,1,14.3,12.06Z" transform="translate(-1.649 -0.97)" fill="#fff"/>
  </g>
</svg>
