<svg width="80" height="74" viewBox="0 0 80 74" fill="none" xmlns="http://www.w3.org/2000/svg">
<path d="M77.9665 9.25025V54.1802C77.9665 58.5543 74.4118 62.109 70.0377 62.109H35.6134L19.8879 72.2183C18.0775 73.3812 15.6592 72.2315 15.4214 70.0907L14.536 62.109H9.25011C4.87604 62.109 1.32129 58.5543 1.32129 54.1802V9.25025C1.32129 4.87618 4.87604 1.32143 9.25011 1.32143H70.0377C74.4118 1.32143 77.9665 4.87618 77.9665 9.25025Z" fill="#FF0025"/>
<path d="M58.9505 43.6712C59.639 44.3597 59.639 45.4896 58.9505 46.178L54.106 51.0226C53.4175 51.7111 52.2876 51.7111 51.5991 51.0226L39.6502 39.0605L27.6881 51.0226C26.9996 51.7111 25.8698 51.7111 25.1813 51.0226L20.3367 46.178C19.6482 45.4896 19.6482 44.3597 20.3367 43.6712L32.2988 31.7091L20.3367 19.7602C19.6482 19.0717 19.6482 17.9418 20.3367 17.2533L25.1813 12.4088C25.8698 11.7203 26.9996 11.7203 27.6881 12.4088L39.6502 24.3577L51.5991 12.4088C52.2876 11.7203 53.4175 11.7203 54.106 12.4088L58.9505 17.2533C59.639 17.9418 59.639 19.0717 58.9505 19.7602L47.0017 31.7091L58.9505 43.6712Z" fill="white"/>
<path d="M18.4994 44.9238C18.4994 45.7524 18.8205 46.5294 19.4033 47.1109L24.2478 51.9554C25.4121 53.1197 27.4591 53.1197 28.6233 51.9554L39.6511 40.929L50.6657 51.9554C51.2471 52.5369 52.0242 52.8593 52.8527 52.8593C53.6813 52.8593 54.4584 52.5382 55.0398 51.9554L59.8844 47.1109C60.4658 46.5294 60.7883 45.7524 60.7883 44.9238C60.7883 44.0952 60.4672 43.3182 59.8844 42.7368L48.8698 31.7089L59.8844 20.6944C60.4658 20.1129 60.7883 19.3359 60.7883 18.5073C60.7883 17.6787 60.4672 16.9017 59.8844 16.3202L55.0398 11.4757C53.8756 10.3114 51.8286 10.3114 50.6644 11.4757L39.6498 22.4903L28.622 11.4757C27.4577 10.3114 25.4107 10.3114 24.2465 11.4757L19.4019 16.3202C18.8205 16.9017 18.498 17.6787 18.498 18.5073C18.498 19.3359 18.8192 20.1129 19.4019 20.6944L30.4284 31.7089L19.4019 42.7368C18.8205 43.3182 18.498 44.0952 18.498 44.9238H18.4994ZM21.2718 44.6053L33.2339 32.6432C33.4824 32.3948 33.6211 32.0591 33.6211 31.7089C33.6211 31.3588 33.4824 31.0218 33.2339 30.7747L21.2718 18.8258C21.0987 18.6527 21.0987 18.3606 21.2718 18.1888L26.1164 13.3442C26.2895 13.1711 26.5816 13.1711 26.7534 13.3442L38.7155 25.2931C39.2322 25.8098 40.0674 25.8098 40.5841 25.2931L52.5329 13.3442C52.7061 13.1711 52.9981 13.1711 53.1699 13.3442L58.0145 18.1888C58.1876 18.3619 58.1876 18.654 58.0145 18.8258L46.0656 30.7747C45.5489 31.2914 45.5489 32.1265 46.0656 32.6432L58.0145 44.6053C58.1876 44.7785 58.1876 45.0705 58.0145 45.2423L53.1699 50.0869C52.9968 50.26 52.7047 50.26 52.5329 50.0869L40.5841 38.1248C40.3356 37.8763 40.0013 37.7376 39.6498 37.7376C39.2983 37.7376 38.9626 37.8763 38.7155 38.1248L26.7534 50.0869C26.5803 50.26 26.2882 50.26 26.1164 50.0869L21.2718 45.2423C21.0987 45.0692 21.0987 44.7771 21.2718 44.6053Z" fill="#1F3E63"/>
<path d="M70.0388 0H9.25041C4.15079 0 0 4.15079 0 9.25041V14.5364C0 15.2671 0.590705 15.8578 1.32149 15.8578C2.05227 15.8578 2.64297 15.2671 2.64297 14.5364V9.25041C2.64297 5.60707 5.60707 2.64297 9.25041 2.64297H70.0388C73.6822 2.64297 76.6462 5.60707 76.6462 9.25041V54.181C76.6462 57.8243 73.6822 60.7884 70.0388 60.7884H35.6141C35.3617 60.7884 35.1119 60.8611 34.8992 60.9985L19.1748 71.1066C18.7043 71.4092 18.1414 71.4436 17.6326 71.2004C17.1238 70.9573 16.7961 70.5 16.7353 69.945L15.8499 61.9632C15.7746 61.2932 15.2103 60.7871 14.5364 60.7871H9.25041C5.60707 60.7871 2.64297 57.823 2.64297 54.1796V19.821C2.64297 19.0902 2.05227 18.4995 1.32149 18.4995C0.590705 18.4995 0 19.0902 0 19.821V54.1796C0 59.2793 4.15079 63.4301 9.25041 63.4301H13.3523L14.1069 70.2357C14.2694 71.6973 15.1614 72.9501 16.4948 73.5857C17.0789 73.8645 17.704 74.002 18.3251 74.002C19.1193 74.002 19.9069 73.7747 20.6033 73.328L36.0026 63.4287H70.0388C75.1384 63.4287 79.2892 59.2779 79.2892 54.1783V9.25041C79.2892 4.15079 75.1384 0 70.0388 0Z" fill="#1F3E63"/>
</svg>
