<svg xmlns="http://www.w3.org/2000/svg" width="43.915" height="40.766" viewBox="0 0 43.915 40.766">
  <g id="Group_175877" data-name="Group 175877" transform="translate(-421.904 -932.483)">
    <g id="Group_175876" data-name="Group 175876" transform="translate(422.407 939.605)">
      <path id="Path_67477" data-name="Path 67477" d="M241,140.212V121.291a1.293,1.293,0,1,1,2.586,0v18.921" transform="translate(-220.872 -119.998)" fill="none" stroke="#b38c8f" stroke-miterlimit="22.926" stroke-width="1" fill-rule="evenodd"/>
      <path id="Path_67478" data-name="Path 67478" d="M63.8,131.347c3.076-1.842,7.088-2.619,10.2-.429,3.388,2.383,3.6,6.776,2.608,10.445a26.225,26.225,0,0,1-3.66,7.612m-3.165,0a25.716,25.716,0,0,0,4.33-8.288c.687-2.537.816-5.954-1.6-7.653-2.821-1.985-6.24-.264-8.713,1.41m-2.586-3.1c-3.076-1.842-7.088-2.619-10.2-.429-3.388,2.383-3.6,6.776-2.608,10.445a26.225,26.225,0,0,0,3.66,7.612m3.165,0a25.714,25.714,0,0,1-4.33-8.288c-.687-2.537-.816-5.954,1.6-7.653,2.821-1.985,6.239-.264,8.713,1.41M44.254,156.732v-7.758h36.5v7.758" transform="translate(-41.086 -128.761)" fill="none" stroke="#b38c8f" stroke-miterlimit="22.926" stroke-width="1" fill-rule="evenodd"/>
      <path id="Path_67479" data-name="Path 67479" d="M15.593,168.437A1.293,1.293,0,1,1,14.3,169.73,1.293,1.293,0,0,1,15.593,168.437Zm5.172,0a1.293,1.293,0,1,1-1.293,1.293A1.293,1.293,0,0,1,20.765,168.437Zm16.312,0a1.293,1.293,0,1,1-1.293,1.293A1.293,1.293,0,0,1,37.078,168.437Zm5.172,0a1.293,1.293,0,1,1-1.293,1.293A1.293,1.293,0,0,1,42.249,168.437Zm-25.4-20.19a7.9,7.9,0,0,0-6.222,1.14,7.111,7.111,0,0,0-2.8,4.105M7.577,154.8a13.471,13.471,0,0,0,.443,5.027,24.278,24.278,0,0,0,2.65,6.02m30.323-17.6a7.9,7.9,0,0,1,6.222,1.14c3.388,2.383,3.6,6.776,2.608,10.445a24.278,24.278,0,0,1-2.65,6.02m-3.056,0a23.46,23.46,0,0,0,3.209-6.7c.687-2.537.816-5.954-1.6-7.653a4.917,4.917,0,0,0-2.957-.862M13.725,165.851a23.46,23.46,0,0,1-3.209-6.7c-.687-2.537-.816-5.954,1.6-7.653a4.917,4.917,0,0,1,2.957-.862m27.575,28.141H10.67a1.3,1.3,0,0,1-1.293-1.293V174.9a1.3,1.3,0,0,1,1.293-1.293h36.5a1.3,1.3,0,0,1,1.293,1.293v2.586a1.3,1.3,0,0,1-1.293,1.293H43.941" transform="translate(-7.502 -145.638)" fill="none" stroke="#b38c8f" stroke-miterlimit="22.926" stroke-width="1" fill-rule="evenodd"/>
      <circle id="Ellipse_7792" data-name="Ellipse 7792" cx="3.879" cy="3.879" r="3.879" transform="translate(17.541 20.214)" fill="none" stroke="#b38c8f" stroke-miterlimit="22.926" stroke-width="1"/>
      <path id="Path_67480" data-name="Path 67480" d="M68.056,212.253A13.547,13.547,0,0,0,57.328,210.8m-2.574,1.337a7.517,7.517,0,0,0-3.01,6.154m18.9-6.035A13.547,13.547,0,0,1,81.371,210.8m2.574,1.337a7.518,7.518,0,0,1,3.01,6.154m-8.543-4.634V212.36M75.827,214.3v-1.293" transform="translate(-47.929 -202.475)" fill="none" stroke="#b38c8f" stroke-miterlimit="22.926" stroke-width="1" fill-rule="evenodd"/>
    </g>
    <g id="noun-diamond-115171_1_" data-name="noun-diamond-115171 (1)" transform="translate(438.646 932.483)">
      <path id="Path_67481" data-name="Path 67481" d="M12.148,5.4,7.707.217a.74.74,0,0,0-1.047,0L2.217,5.4a.74.74,0,0,0,0,1.047L6.66,11.628a.74.74,0,0,0,1.047,0l4.441-5.182A.74.74,0,0,0,12.148,5.4Z" transform="translate(-2 0)" fill="#b38c8f"/>
    </g>
  </g>
</svg>
