<svg width="78" height="76" viewBox="0 0 78 76" fill="none" xmlns="http://www.w3.org/2000/svg">
<path d="M71.9573 15.8365L56.0269 3.8247C54.7847 2.88648 53.2679 2.3774 51.7076 2.375H26.2126C24.6548 2.37745 23.1404 2.88476 21.8991 3.81995L5.96293 15.8365C5.07593 16.5114 4.35694 17.3798 3.8615 18.3748C3.36605 19.3697 3.10742 20.4645 3.10556 21.5745V33.2595C3.09168 39.3202 4.64924 45.2823 7.62813 50.5711C10.607 55.86 14.9068 60.2972 20.113 63.4552L35.2628 72.5957C36.3775 73.27 37.6574 73.6267 38.9625 73.6267C40.2676 73.6267 41.5475 73.27 42.6622 72.5957L57.8072 63.4576C63.0135 60.2995 67.3133 55.8622 70.2922 50.5733C73.2711 45.2844 74.8286 39.3222 74.8147 33.2614V21.5745C74.8128 20.4645 74.5542 19.3697 74.0587 18.3748C73.5633 17.3798 72.8443 16.5114 71.9573 15.8365ZM70.034 33.2614C70.049 38.5067 68.7033 43.6674 66.1266 48.2455C63.5499 52.8237 59.8293 56.6648 55.3236 59.3983L40.1835 68.534C39.8153 68.7558 39.393 68.8731 38.9625 68.8731C38.532 68.8731 38.1097 68.7558 37.7415 68.534L22.5966 59.3959C18.0913 56.6626 14.3709 52.8219 11.7942 48.2442C9.21756 43.6665 7.87161 38.5063 7.88617 33.2614V21.5745C7.8856 21.1972 7.97245 20.8248 8.13999 20.4862C8.30754 20.1475 8.55127 19.8518 8.85233 19.6218L24.7933 7.6C25.2018 7.2926 25.7001 7.12585 26.2126 7.125H51.7076C52.2224 7.12618 52.7226 7.29485 53.1317 7.60522L69.0679 19.6227C69.3688 19.8526 69.6125 20.1482 69.78 20.4867C69.9475 20.8251 70.0345 21.1973 70.034 21.5745V33.2614ZM52.4825 22.1891C55.4523 25.1491 57.3574 28.9991 57.9033 33.1432C58.4492 37.2874 57.6053 41.4948 55.5022 45.1145C53.3991 48.7341 50.1541 51.5642 46.2692 53.1669C42.3843 54.7696 38.0761 55.0555 34.0112 53.9804C33.4117 53.8067 32.9045 53.4067 32.598 52.8661C32.2915 52.3255 32.2101 51.6872 32.3712 51.0878C32.5323 50.4883 32.9231 49.9753 33.46 49.6584C33.9969 49.3416 34.6373 49.2461 35.2441 49.3924C38.606 50.2893 42.1813 49.9412 45.304 48.413C48.4267 46.8848 50.8837 44.2808 52.2172 41.086C53.5508 37.8912 53.6698 34.3237 52.5523 31.0482C51.4347 27.7727 49.1568 25.0125 46.1429 23.2821C43.129 21.5517 39.5847 20.969 36.1704 21.6426C32.7562 22.3162 29.7049 24.2002 27.585 26.9435C25.4651 29.6868 24.4214 33.1022 24.6481 36.5535C24.8749 40.0048 26.3567 43.2564 28.8176 45.7026C29.0459 45.9217 29.228 46.1838 29.3532 46.4735C29.4785 46.7633 29.5445 47.0749 29.5472 47.3903C29.55 47.7056 29.4895 48.0184 29.3693 48.3102C29.2491 48.6021 29.0716 48.8673 28.8472 49.0903C28.6228 49.3133 28.3559 49.4896 28.0621 49.6091C27.7684 49.7285 27.4536 49.7886 27.1362 49.7858C26.8188 49.7831 26.5052 49.7176 26.2136 49.5931C25.9219 49.4686 25.6582 49.2877 25.4377 49.0608C21.8513 45.4974 19.8365 40.6644 19.8365 35.625C19.8365 30.5856 21.8513 25.7526 25.4377 22.1891C29.0241 18.6257 33.8882 16.6238 38.9601 16.6238C44.032 16.6238 48.8962 18.6257 52.4825 22.1891ZM35.1786 41.4604L30.9956 37.3041C30.5602 36.8562 30.3193 36.2563 30.3247 35.6335C30.3302 35.0108 30.5816 34.4151 31.0247 33.9748C31.4679 33.5345 32.0674 33.2847 32.6942 33.2793C33.3209 33.2739 33.9247 33.5133 34.3755 33.9459L36.8686 36.423L43.5447 29.7896C43.9955 29.357 44.5993 29.1176 45.2261 29.123C45.8528 29.1284 46.4523 29.3782 46.8955 29.8186C47.3387 30.2589 47.59 30.8546 47.5955 31.4773C47.6009 32.1 47.36 32.6999 46.9246 33.1479L38.5585 41.4604C38.1103 41.9056 37.5024 42.1557 36.8686 42.1557C36.2348 42.1557 35.6269 41.9056 35.1786 41.4604Z" fill="url(#paint0_linear_80_3441)"/>
<defs>
<linearGradient id="paint0_linear_80_3441" x1="3.10556" y1="38" x2="74.8147" y2="38" gradientUnits="userSpaceOnUse">
<stop stop-color="#87F1FC"/>
<stop offset="0.2557" stop-color="#7FD4FB"/>
<stop offset="0.5295" stop-color="#78BCFB"/>
<stop offset="0.7844" stop-color="#74AEFA"/>
<stop offset="1" stop-color="#73A9FA"/>
</linearGradient>
</defs>
</svg>
