<svg width="12" height="12" viewBox="0 0 12 12" fill="none" xmlns="http://www.w3.org/2000/svg">
<path d="M10.7588 8.09036C10.2977 7.62471 9.83655 7.16586 9.38907 6.72292C9.14602 6.48215 8.86208 6.35494 8.56452 6.35494C8.26695 6.35494 7.98302 6.48215 7.74224 6.72065L7.68091 6.78198C7.43786 7.02276 7.18572 7.27262 6.94267 7.52249C6.8927 7.4975 6.84273 7.47252 6.79503 7.44753C6.68372 7.39301 6.57696 7.34077 6.48383 7.28171C5.75241 6.82287 5.08005 6.21184 4.43041 5.41C4.11467 5.02158 3.89433 4.67631 3.73987 4.3265C3.95566 4.11753 4.16691 3.90401 4.37362 3.69503C4.42586 3.64278 4.48038 3.58827 4.53262 3.53602C5.03917 3.02721 5.03689 2.36848 4.53035 1.85739C4.37589 1.70066 4.21689 1.54393 4.0647 1.39174C3.99655 1.32359 3.92841 1.25545 3.86026 1.1873C3.78757 1.11462 3.71716 1.0442 3.64447 0.971511C3.49001 0.814778 3.32873 0.653503 3.16746 0.49677C2.92441 0.258263 2.6382 0.133331 2.34291 0.133331C2.04761 0.133331 1.7614 0.258263 1.52063 0.49677C1.40478 0.612616 1.28666 0.728462 1.17536 0.842036C1.01181 1.00786 0.841451 1.17822 0.671089 1.34176C0.353081 1.64387 0.175904 2.02548 0.141832 2.47751C0.0895878 3.18849 0.287207 3.83132 0.464384 4.31287C0.868709 5.40092 1.48655 6.43217 2.35426 7.4657C3.43549 8.75136 4.73706 9.76899 6.22261 10.4936C7.04035 10.8911 7.74224 11.0933 8.42596 11.1319C8.47593 11.1342 8.5259 11.1364 8.5736 11.1364C9.15056 11.1364 9.6253 10.932 9.9842 10.5322C10.1387 10.3596 10.3045 10.1983 10.4794 10.0279C10.568 9.94163 10.6588 9.85304 10.7497 9.76218C11.2585 9.25109 11.2608 8.5969 10.7588 8.09036ZM10.3181 9.3306C10.2318 9.41691 10.1432 9.50323 10.0569 9.58954C9.88198 9.75991 9.70026 9.93708 9.53217 10.1256C9.26641 10.4232 8.93023 10.5481 8.46457 10.5231C7.86263 10.4891 7.23797 10.3073 6.49519 9.94617C5.08687 9.26018 3.85118 8.2948 2.82673 7.07728C2.00445 6.09826 1.42068 5.12834 1.04134 4.10617C0.807379 3.47924 0.721062 2.99314 0.755134 2.53202C0.777849 2.23446 0.889152 1.99141 1.09586 1.79606C1.27076 1.62116 1.4434 1.44625 1.61149 1.27816C1.72279 1.16686 1.83636 1.05101 1.94994 0.937439C2.03626 0.851122 2.17482 0.748905 2.34291 0.748905C2.511 0.748905 2.64956 0.851122 2.73815 0.937439C2.89488 1.0919 3.05615 1.25318 3.20834 1.40764C3.28103 1.48032 3.35145 1.55301 3.42414 1.62343C3.49228 1.69157 3.56042 1.75972 3.62857 1.82786C3.78076 1.98005 3.93749 2.13679 4.09195 2.29125C4.36453 2.5661 4.3668 2.83186 4.09422 3.10444C4.04198 3.15896 3.98746 3.2112 3.93522 3.26572C3.71489 3.48832 3.48547 3.72001 3.25605 3.94035C3.14247 4.04938 3.03117 4.23564 3.14247 4.50368C3.31965 4.92845 3.57633 5.34186 3.94885 5.8007C4.64165 6.65251 5.36399 7.30897 6.15219 7.80415C6.27486 7.88138 6.39979 7.94271 6.52018 8.00177C6.59286 8.03585 6.65874 8.06992 6.72461 8.10626C6.80638 8.15169 6.88816 8.17214 6.96993 8.17214C7.09941 8.17214 7.2198 8.11535 7.32656 8.00632C7.58323 7.74055 7.85127 7.47706 8.10795 7.22038L8.16928 7.15905C8.2556 7.07273 8.39416 6.97052 8.55997 6.97052C8.72579 6.97052 8.86435 7.07273 8.95294 7.15905C9.39815 7.60199 9.85927 8.06083 10.3181 8.52422C10.5839 8.78544 10.5816 9.06483 10.3181 9.3306Z" fill="#1F3E63"/>
</svg>
