<svg width="11" height="11" viewBox="0 0 11 11" fill="none" xmlns="http://www.w3.org/2000/svg">
<g clip-path="url(#clip0_60_4848)">
<path d="M9.99023 1.5228H1.00977C0.742052 1.5231 0.485389 1.62958 0.296086 1.81888C0.106784 2.00819 0.000301381 2.26485 0 2.53256L0 8.46745C0.000301381 8.73516 0.106784 8.99183 0.296086 9.18113C0.485389 9.37043 0.742052 9.47691 1.00977 9.47721H9.99023C10.2579 9.47691 10.5146 9.37043 10.7039 9.18113C10.8932 8.99183 10.9997 8.73516 11 8.46745V2.53256C10.9997 2.26485 10.8932 2.00819 10.7039 1.81888C10.5146 1.62958 10.2579 1.5231 9.99023 1.5228ZM7.2611 5.50001L10.4378 2.32335C10.4685 2.3888 10.4844 2.46024 10.4844 2.53256V8.46745C10.4844 8.53977 10.4685 8.61121 10.4378 8.67666L7.2611 5.50001ZM9.99023 2.03842H9.99339L5.5 6.5319L1.00661 2.03851H1.00977L9.99023 2.03842ZM0.562246 8.67666C0.531493 8.61121 0.515574 8.53977 0.515625 8.46745V2.53256C0.515569 2.46024 0.531488 2.3888 0.562246 2.32335L3.7389 5.50001L0.562246 8.67666ZM1.00977 8.96159C1.00871 8.96159 1.00762 8.96159 1.00659 8.96159L4.10352 5.8646L5.31773 7.07881C5.36608 7.12715 5.43165 7.15431 5.50002 7.15431C5.56839 7.15431 5.63397 7.12715 5.68232 7.07881L6.89648 5.86462L9.99339 8.9615C9.99234 8.9615 9.99124 8.9615 9.99023 8.9615L1.00977 8.96159Z" fill="#1F3E63"/>
</g>
<defs>
<clipPath id="clip0_60_4848">
<rect width="11" height="11" fill="white"/>
</clipPath>
</defs>
</svg>
