<svg xmlns="http://www.w3.org/2000/svg" width="26.499" height="18.934" viewBox="0 0 26.499 18.934">
  <g id="_40-Fast-delivery" data-name="40-Fast-delivery" transform="translate(0 0)">
    <path id="Path_67416" data-name="Path 67416" d="M28.476,15.088l-2.092-4.734a.947.947,0,0,0-.862-.568H20.457l.3-2.736A.945.945,0,0,0,19.823,6H6.787a.947.947,0,0,0,0,1.893H11.52a.947.947,0,1,1,0,1.893H4.893a.947.947,0,1,0,0,1.893h9.467a.947.947,0,1,1,0,1.893H7.734a.947.947,0,1,0,0,1.893H11.52a.947.947,0,1,1,0,1.893H3.947a.947.947,0,1,0,0,1.893H5.84a.947.947,0,1,1,0,1.893H4.893a.947.947,0,0,0,0,1.893h2.7A2.632,2.632,0,0,0,8.16,24.12a2.443,2.443,0,0,0,1.827.814,2.963,2.963,0,0,0,2.679-1.893H19.9a2.632,2.632,0,0,0,.568,1.079,2.443,2.443,0,0,0,1.827.814,2.963,2.963,0,0,0,2.679-1.893h1.893a.947.947,0,0,0,.947-.843l.729-6.627a.843.843,0,0,0-.066-.483ZM9.987,23.041a.521.521,0,0,1-.417-.18.852.852,0,0,1-.18-.663,1.164,1.164,0,0,1,1.022-1.051.521.521,0,0,1,.417.18.852.852,0,0,1,.18.663,1.164,1.164,0,0,1-1.022,1.051Zm12.307,0a.521.521,0,0,1-.417-.18.852.852,0,0,1-.18-.663,1.164,1.164,0,0,1,1.022-1.051.521.521,0,0,1,.417.18.852.852,0,0,1,.18.663,1.164,1.164,0,0,1-1.022,1.051Zm4.26-6.627H22.37a.945.945,0,0,1-.937-1.051l.312-2.84a.947.947,0,0,1,.947-.833H24.9l1.77,3.929Z" transform="translate(-2.053 -6)" fill="#560408"/>
    <path id="Path_67417" data-name="Path 67417" d="M3.893,15.893a.947.947,0,1,0,0-1.893H2.947a.947.947,0,1,0,0,1.893Z" transform="translate(-2 -6.426)" fill="#560408"/>
  </g>
</svg>
