<svg xmlns="http://www.w3.org/2000/svg" xmlns:xlink="http://www.w3.org/1999/xlink" width="30.386" height="25.112" viewBox="0 0 30.386 25.112">
  <defs>
    <radialGradient id="radial-gradient" cx="-0.032" cy="-0.118" r="2.22" gradientTransform="translate(0.088) scale(0.824 1)" gradientUnits="objectBoundingBox">
      <stop offset="0" stop-color="#00a213"/>
      <stop offset="1" stop-color="#00320b"/>
    </radialGradient>
  </defs>
  <g id="Group_175696" data-name="Group 175696" transform="translate(0 0)">
    <path id="Path_67398" data-name="Path 67398" d="M99.4,149.68l1.387,1.673c-.969,1.1-.529.8-1.355,1-.729.172-.247-.054-.54.354-.822,1.14-.9.79-2.43.568l-.418,2.155c.919-.132.79-.086,1.187.636l1.473,2.305a3.221,3.221,0,0,1,.2.293c.014.021.032.054.046.079l.129.254c.111.2.225.354.4.615.518.772.1,1.19.768,1.766.161.143.393.2.647.365a2.8,2.8,0,0,1,1.179,1.7c.844,1.905-.014.418.4,2.241.561,2.513,1.515,1.5,2.52,3.067.751,1.169.286,1.537,1.73,2.92l.965,1.541c.168.3-.011.086.193.3.972-1.026.1-.447.629-1.58.793-.1.2.19.979.186l1.419-.125c.44,0,1.112.257,1.773.275,1.53.039.315.154,1.38.443.543-.054.4-.54,1.212-1.494,1.351-1.587,4.45-1.119,6.273-1.783,4.675-1.7,3.578-.658,4.46-3.5.511-1.644-.386-1.9-.393-1.891l-.336-.064c-2.9-.415-3.335.164-4.65-2.055-.361-.611-.018-.457-.593-.536l.279-.493c-1.7.186-1.122-1.276-2.152-2.359.422-.29,0,.272.343-.254-.214-.458-.125-.1-.247-.508-.136-.468.372.043-.222-.436-1.333-1.079-.661-.8-1.23-1.183-.54-.365,0,.114-.55-.811-.014-.025-.036-.054-.05-.079a1.851,1.851,0,0,1-.189-.683l-1.237.029-.25-.7c-2.988-.836-2.477.976-5.965-1.987-.425-.365-1.036-.822-1.43-1.219-.765-.776-3.324-2.173-4.525-1.991-.247.039-.661.25-1.037.354a22.048,22.048,0,0,1-2.169.608Z" transform="translate(-95.893 -148.583)" fill-rule="evenodd" fill="url(#radial-gradient)"/>
    <path id="Path_67399" data-name="Path 67399" d="M96.742,147.472l1.319,1.594-.068.079c-.214.243-.365.425-.475.554a1.832,1.832,0,0,1-.282.307.652.652,0,0,1-.315.107c-.086.014-.2.036-.343.068-.179.043-.282.064-.347.075a.724.724,0,0,1-.121.232c-.7.972-.9.933-1.78.754-.179-.036-.393-.079-.654-.118L93.311,153c.718-.1.743-.043,1.008.468.039.072.082.154.136.254l1.465,2.3c.046.068.068.093.086.118h0a1.19,1.19,0,0,1,.118.175.509.509,0,0,0,.032.054c.05.093.1.189.146.286a5.053,5.053,0,0,0,.286.447l.107.161a2.008,2.008,0,0,1,.34.929,1.124,1.124,0,0,0,.407.811,1.288,1.288,0,0,0,.29.168,2.7,2.7,0,0,1,.343.182,2.4,2.4,0,0,1,1.087,1.408c.043.111.086.225.139.347.475,1.076.429,1.144.34,1.283-.047.075-.118.179.064.983.322,1.437.772,1.673,1.283,1.944a2.788,2.788,0,0,1,1.222,1.079,4.533,4.533,0,0,1,.508,1.1,3.755,3.755,0,0,0,1.2,1.8l.021.021.965,1.548a.939.939,0,0,1,.089.182c.4-.429.383-.483.354-.579-.039-.139-.093-.325.164-.879l.029-.057.064-.011c.475-.061.536.014.611.107.029.036.064.079.382.079l1.423-.125a3.762,3.762,0,0,1,.765.122,5.538,5.538,0,0,0,1.008.154c.944.025.962.1.99.25.007.036.014.086.4.193.225-.032.3-.179.443-.443a4.953,4.953,0,0,1,.668-1.008c.894-1.051,2.495-1.226,4.017-1.4a10.583,10.583,0,0,0,2.305-.418c1-.365,1.726-.6,2.27-.776a5.2,5.2,0,0,0,1.38-.55c.225-.179.293-.44.429-.979.072-.286.164-.647.311-1.119.265-.847.139-1.3-.029-1.526a.685.685,0,0,0-.168-.161.361.361,0,0,0-.082-.043l-.354-.068c-.651-.093-1.176-.136-1.615-.172-1.566-.129-2.069-.168-3.12-1.941a2.04,2.04,0,0,1-.2-.429c-.007-.021,0-.021,0-.025s-.018,0-.072,0-.132-.014-.229-.029l-.175-.025.254-.45c-.951.032-1.133-.5-1.362-1.172a3.168,3.168,0,0,0-.661-1.24l-.1-.1.118-.082a1.038,1.038,0,0,1,.261-.143l.014-.018c-.071-.143-.089-.164-.1-.175-.039-.039-.05-.046-.122-.293a.568.568,0,0,1-.032-.257c-.043-.029-.089-.068-.15-.118-.8-.65-.9-.829-.961-.944-.032-.057-.054-.093-.261-.232-.1-.068-.168-.111-.207-.132s-.071-.043-.089-.075a.115.115,0,0,1-.025-.086c0-.032,0-.122-.265-.558l-.018-.025c-.011-.018-.025-.039-.036-.061a1.641,1.641,0,0,1-.136-.354c-.021-.086-.039-.172-.054-.261l-1.215.032-.257-.729a5.521,5.521,0,0,0-2.134-.193c-.944.071-1.562.118-3.814-1.8h0c-.129-.111-.286-.236-.45-.368a12.242,12.242,0,0,1-.99-.858,8.827,8.827,0,0,0-2.362-1.469,4.308,4.308,0,0,0-2.059-.486,2.747,2.747,0,0,0-.493.161,4.646,4.646,0,0,1-.529.186c-.211.061-.45.136-.7.214a13.044,13.044,0,0,1-1.276.361Zm1,1.59-1.458-1.755.211-.036a11.42,11.42,0,0,0,1.447-.39c.239-.079.475-.154.708-.218.164-.046.343-.114.508-.179a3.022,3.022,0,0,1,.543-.175,4.506,4.506,0,0,1,2.191.508,8.916,8.916,0,0,1,2.438,1.519c.261.261.629.561.969.836h0c.157.129.311.25.454.372h0c2.177,1.851,2.759,1.809,3.642,1.741a5.78,5.78,0,0,1,2.277.222l.061.018.243.679,1.258-.032.014.111a3,3,0,0,0,.057.336,1.3,1.3,0,0,0,.118.3.175.175,0,0,0,.025.039l.021.036a1.947,1.947,0,0,1,.293.633h0c.036.021.1.061.218.139.257.175.289.229.336.318s.136.25.9.872c.175.139.25.193.279.211a.146.146,0,0,1,.05.054h0c.107.214.043.225-.1.186h-.011a.1.1,0,0,1,.043.043,1,1,0,0,0,.057.186,1.015,1.015,0,0,1,.182.307l.029.061-.039.057-.139.218-.011.018a.158.158,0,0,1-.047.05,3.679,3.679,0,0,1,.558,1.147c.211.615.375,1.1,1.337.99l.232-.025-.3.54.043,0c.111.011.157.018.207.064a.248.248,0,0,1,.071.129,1.934,1.934,0,0,0,.179.379c.986,1.665,1.462,1.7,2.931,1.823.443.036.972.079,1.633.175l.329.064a.072.072,0,0,1,.029,0,.651.651,0,0,1,.175.079.877.877,0,0,1,.229.222,1.9,1.9,0,0,1,.064,1.741c-.143.461-.232.822-.3,1.108-.154.593-.225.879-.518,1.108a5.122,5.122,0,0,1-1.451.59c-.547.179-1.276.415-2.262.772a10.432,10.432,0,0,1-2.363.432c-1.476.164-3.027.339-3.86,1.315a4.842,4.842,0,0,0-.636.961c-.182.35-.282.536-.654.575l-.043,0c-.551-.15-.575-.286-.6-.386,0-.025-.007-.036-.754-.054a5.808,5.808,0,0,1-1.054-.161,3.689,3.689,0,0,0-.715-.114l-1.408.125H106.6c-.436,0-.511-.093-.575-.172-.025-.032-.046-.057-.325-.025-.186.422-.15.55-.122.647.054.189.082.293-.5.908L105,171.4l-.089-.093c-.039-.046-.061-.068-.075-.082a.211.211,0,0,1-.043-.05.115.115,0,0,1-.021-.057c0-.007,0-.018-.072-.136l-.954-1.526a3.954,3.954,0,0,1-1.251-1.88,4.122,4.122,0,0,0-.483-1.051,2.57,2.57,0,0,0-1.133-1c-.565-.3-1.058-.561-1.4-2.105-.2-.9-.1-1.058-.032-1.165.043-.068.064-.1-.357-1.058-.054-.122-.1-.243-.143-.361a2.227,2.227,0,0,0-.99-1.287,2.518,2.518,0,0,0-.318-.168,1.48,1.48,0,0,1-.343-.2,1.323,1.323,0,0,1-.49-.958,1.849,1.849,0,0,0-.3-.833l-.107-.157c-.118-.175-.207-.3-.3-.468l-.129-.254-.043-.075a1.009,1.009,0,0,0-.1-.154,1.3,1.3,0,0,1-.1-.132c-.468-.772-.987-1.551-1.48-2.316-.05-.1-.1-.182-.136-.257-.207-.4-.214-.418-.926-.318l-.168.025.472-2.434.114.014c.311.046.568.1.783.139.754.154.922.186,1.533-.658.089-.125.086-.154.082-.164-.007-.057-.014-.086.057-.132a.155.155,0,0,1,.1-.029c.054-.011.161-.025.372-.075.168-.039.275-.061.357-.075h0a.473.473,0,0,0,.214-.064,1.492,1.492,0,0,0,.239-.264c.093-.111.222-.265.415-.483Z" transform="translate(-93.011 -146.292)" fill="#fff"/>
    <path id="Path_67400" data-name="Path 67400" d="M286.852,472.95h0c.346.017.67,0,1.017.02a.125.125,0,0,1-.008.175h-.014l-.29-.008c0-.006,0-.011,0-.017-.028-.079-.22-.073-.268-.011v0a2.91,2.91,0,0,1-.006.011v.008a.014.014,0,0,0,0,.009,2.592,2.592,0,0,1-.442-.009c-.042-.056-.037-.158.014-.18Zm-.161-.859,0,0a.214.214,0,0,0-.073.394c-2.377,0-6.022-.042-6.805-.042-.437,0-1.82-.051-1.848-.051a1.4,1.4,0,0,0,1.29.53c1.056,0,5.946-.011,7.338-.011a.486.486,0,0,0,.087.51.01.01,0,0,0,.006,0,.011.011,0,0,0,.008,0h0c.093.023.132-.045.166-.093a9.566,9.566,0,0,0,1.068,0v0c.053.076.1.149.2.138.175-.037.31-.056.315-.408,0,0-.017-.6-.411-.563-.093.014-.355.039-.355.039-.3-.034-.527-.039-.865-.051.031-.039.085-.2.017-.262a.1.1,0,0,0-.079-.017h-.006v0h0s-.006-.006-.006-.008h0a.773.773,0,0,1-.037-.1h0l0,0h0Z" transform="translate(-268.809 -455.967)" fill="#fefefe"/>
    <path id="Path_67401" data-name="Path 67401" d="M216.554,304.562c.115-.132.158.437.225.668.082.315.194.194.22.023a2.558,2.558,0,0,1,.062-.321c.051-.335.234-.535.307-.53.09-.017.132.008.169.1a1.649,1.649,0,0,1,.008.718c-.011.186.217.4.206.023a5.1,5.1,0,0,0-.138-.794,3.574,3.574,0,0,1-.011-.493c.037-.087.138-.132.206-.039.113.093.135.456.155.628a2.521,2.521,0,0,0,.079.648c.048.1.11.118.141.034.037,0-.042-.1-.093-.248a1.018,1.018,0,0,1-.02-.707.1.1,0,0,1,.169,0,.7.7,0,0,1,.149.293.822.822,0,0,1,.02.53c0,.037.225.206.225.206a.175.175,0,0,0,.231.045.651.651,0,0,0-.059-.332,1,1,0,0,1-.231-.665c.053-.183.2-.2.3-.116a.618.618,0,0,1,.242.377c-.017.07-.1.079-.144,0-.014.037.054.135.042.172a1.927,1.927,0,0,1,.127.617c-.006.217-.175.352-.456.431-.183.039-.237-.062-.358-.146-.073-.042-.18-.037-.183.048a7.248,7.248,0,0,0,.028.9c-.014.749-.29.67-.29.67-.02-.4-.037-.8-.056-1.2-.048-.115-.127-.118-.245-.11a.332.332,0,0,1-.259-.338v-.69c-.006-.093-.062-.093-.093-.02-.166.149.085.963-.369.918-.378-.079-.338-.859-.307-1.3Zm1.239,1.82c-.065-.1,0-.183-.248-.192a1.208,1.208,0,0,0-.938.763c.394-.191.786-.375,1.186-.572Zm.952-.02a.115.115,0,0,0-.065.028c-.006,0-.006.006-.008.011h0c-.017.031-.059.073-.045.116a.106.106,0,0,0,.1.051c.039,0,.1.008.11-.014h0v0a.125.125,0,0,0,.023-.121.1.1,0,0,0-.113-.068Zm.563-2.49a.04.04,0,0,1,.025,0l.011,0s.006,0,.006.006a.01.01,0,0,1,.006,0,.033.033,0,0,1,.014.014h0a2.58,2.58,0,0,1,.327.766c-.07.09-.141.031-.217.034.059.454.118.887.177,1.341.186-.107.279-.079.256.152.017.1.166.087.248.02.121-.341.318-.313.369-.093,0,.054.065.065.1.045a.1.1,0,0,0,.02-.017c0-.006,0-.008,0-.014.008-.056.02-.116.028-.172a.039.039,0,0,1,.014-.028.574.574,0,0,1,.217-.09,4.161,4.161,0,0,1-.068.6.324.324,0,0,1-.487.138.09.09,0,0,0-.138.014c-.062.073-.344.262-.546.045a.01.01,0,0,1-.006,0h0l0,0h0a3.535,3.535,0,0,1-.051,1c-.33,1.045-2.349,1.591-2.431.324a1.831,1.831,0,0,1,.02-.389c.017-.217.1-.341.166-.293.028.02.051.076.065.172a1.558,1.558,0,0,0,.09.544c.268.5,1.837.394,1.884-1.211a.066.066,0,0,0-.031-.059c-.034-.014-.079.037-.1.087-.231,1.769-2.324,1.546-1.7-.068.211-.144.118.484.2.651.138.262.4.228.721.084.527-.282.555-.642.53-.687h0c-.039-.028-.132.085-.245.132a.377.377,0,0,1-.425-.107,1.027,1.027,0,0,1,0-.453.5.5,0,0,1,.425-.4c.256-.011.293.194.442.3.087.011.155-.1.138-.178-.113-.7-.189-1.228-.3-1.924a.224.224,0,0,1,.161-.276c.028-.006.054-.02.076-.023Zm1.377.175h-.006c-.037.008-.048.059-.025.11a.112.112,0,0,0,.11.076c.037-.011.048-.059.025-.11a.116.116,0,0,0-.1-.076Zm.028-.211a.392.392,0,0,1,.18.034.239.239,0,0,1-.025.363.051.051,0,0,0,0,.085c.031.025.059.045.09.07a6.163,6.163,0,0,1-.721.73h0l0,0a1.716,1.716,0,0,1-.434,0h0v0h0l0,0h0v0a0,0,0,0,1,0,0c.028-.073.611-.473.837-.713.054-.045-.025-.124-.1-.161a.269.269,0,0,1,.045-.358.317.317,0,0,1,.141-.039Zm-4.067,3.69a1.176,1.176,0,0,0-.118,1.045.262.262,0,0,0,.251.085.466.466,0,0,0,.169-.451c-.045-.073-.082-.085-.13-.023-.1.2-.141.062-.149-.048a2.675,2.675,0,0,1,.028-.563c.025-.158,0-.11-.051-.045Zm9.532-.569c-.214-.465-.513-.924-.608-1.1s-.811-1.217-.918-1.338c-.234-.276.38.115-.076-.431-.175-.149-.186-.161-.33-.282-.073-.051-.251-.144-.282.011a.883.883,0,0,0,.017.327,1.154,1.154,0,0,0,.183.279,20.86,20.86,0,0,1,1.994,3.208c.1-.048.079-.6.02-.676Zm-.946,1.552c-.042.048.1.251.3.251a1.12,1.12,0,0,0,.862-.69,1.209,1.209,0,0,0,.2-.527,11.492,11.492,0,0,0-.217-2.682.448.448,0,0,1,.011-.189c.02-.025.09,0,.127-.062.054-.054-.144-.518-.259-.7-.039-.079-.054-.132-.121.011a1,1,0,0,0-.113.5c.152,1.056.2,1.98.3,3.036a.436.436,0,0,1-.076.31,2.98,2.98,0,0,1-1.008.732Zm4.321-.006c-.231.132-.231.284-.045.29a1.141,1.141,0,0,0,.958-.456,1.5,1.5,0,0,0,.155-.591,13.735,13.735,0,0,0-.174-2.9,1.83,1.83,0,0,1-.031-.273c.023-.051.127.006.163-.056.053-.053-.27-.47-.383-.648-.042-.082-.056-.132-.121.008a.823.823,0,0,0-.068.5,27.674,27.674,0,0,1,.321,3.273,1.027,1.027,0,0,1-.062.27,2.337,2.337,0,0,1-.316.366c-.1.076-.327.152-.4.208Zm.172-1.028c0-.268,0-.5-.006-.7s-.1-.949-.133-1.11-.059-.406-.107-.6a2.34,2.34,0,0,1-.039-.341c.02-.053.09,0,.127-.059a2.178,2.178,0,0,0-.3-.842c-.042-.079-.121-.051-.217.076-.09.082-.056.273-.023.456a16.542,16.542,0,0,1,.363,3.591c-.011.1.338-.29.338-.473Zm-1.7-1.484c0-.147.017-.341.023-.465.006-.045.014-.1.059-.107s.121.045.124,0a.646.646,0,0,0-.082-.3.167.167,0,0,0-.3.087c0,.062.028.1.022.152-.008.031-.042.053-.121.017.014-.014-.051-.1-.051-.1-.062-.037-.144,0-.2.037a.3.3,0,0,0-.017.237c.087.163.389.442.535.445Zm-2.665,1.783a13.114,13.114,0,0,0-.017-1.324c-.014-.507-.1-1.49-.138-1.653-.045-.307.127.034.1-.147a2.023,2.023,0,0,0-.428-.8c-.065-.09-.062-.11-.163.022a.951.951,0,0,0,.014.623,11.7,11.7,0,0,1,.27,1.8,16.667,16.667,0,0,1,.014,1.915c.11,0,.284-.177.344-.439Zm4.85-.586c-.253-.425-.639-.927-.741-1.1s-.972-1.442-1.082-1.558c-.315-.332.147-.053-.059-.31a2.235,2.235,0,0,0-.377-.366c-.073-.048-.118-.141-.144.017a3.5,3.5,0,0,0-.011.414.565.565,0,0,0,.127.259,23.517,23.517,0,0,1,2.284,3.315c.1-.051.062-.6,0-.673Zm-9.1-2.989c-.234.662.132,1.386.386,1.315.18.076.3-.27.372-.654.051-.1.09-.116.116-.062-.006.507.037.617.166.772a.426.426,0,0,0,.549.011c.017-.02.225-.228.225-.228a.135.135,0,0,1,.189-.008c.068.062.059.172.206.245a.454.454,0,0,0,.451-.1c.082-.141.1-.189.141-.245.059-.079.161-.042.161-.017-.008.045-.068.087-.028.166.07.053.087.02.127.008.146-.07.259-.392.259-.392.006-.118-.062-.11-.1-.084s-.059.045-.116.082c-.073.008-.211.056-.282-.051a4,4,0,0,1-.124-.437c0-.008-.1-.2-.008-.217.045.008.138.034.152-.045.048-.076-.1-.3-.2-.4a.211.211,0,0,0-.318-.011c-.079.076-.068.158-.084.237a.361.361,0,0,0,.076.318.986.986,0,0,1,.177.648.255.255,0,0,1-.234.118c-.062-.014-.163-.039-.217-.437a2.865,2.865,0,0,0-.118-.918c-.045-.118-.079-.234-.192-.031a.472.472,0,0,0-.068.451,1.308,1.308,0,0,1,.073.7,1.445,1.445,0,0,1-.132.189.222.222,0,0,1-.287.039.307.307,0,0,1-.172-.24,3.182,3.182,0,0,0-.025-.777A.139.139,0,0,0,222,304.1a1.771,1.771,0,0,0-.428.873c-.065.214-.135.152-.183.068-.121-.113-.13-.989-.273-.845Zm1.5,3.008a.143.143,0,0,0-.144.147.777.777,0,0,0,.377.555c.039.02.09.054.127.048h0l.008-.006h0v0h0v0a.006.006,0,0,0,.006-.006c.017-.025.02-.079,0-.183,0-.211.138-.251.284-.3s.07-.175-.087-.183a4.021,4.021,0,0,1-.569-.065h-.014Zm1.262-1.146a.075.075,0,0,0-.034.014s-.006,0-.008.006h0a.01.01,0,0,1,0,.006s0,.008-.006.011v.006c0,.034.031.079.085.113a.136.136,0,0,0,.141.011l.008-.008v0l0,0v0l0,0V306.2a.14.14,0,0,0-.085-.113.2.2,0,0,0-.1-.028Zm-1.98-.493h.006c.023,0,.051.031.121.1a2.668,2.668,0,0,1,.344,1.158.128.128,0,0,0,.065.138l.006,0h.008l0,0h0l0,0h0c.017-.222.561-.535,1.059-.58.076-.017.039-.163.051-.237a.455.455,0,1,1,.893-.02c-.04.552-.614.648-.938.69a.085.085,0,0,0-.042.028h0v.014h0v0h0v0l0,0a.139.139,0,0,0,.037.02l1.358.006.068.039a.021.021,0,0,1,0,.011v0h0v0h0a.216.216,0,0,0-.07.076,1.094,1.094,0,0,0-.135.428,6.639,6.639,0,0,1-1.248.239c-.149.073-.223.175-.191.284.048.121.358.242.377.254.062.039.135.132-.017.318a1.5,1.5,0,0,1-1.352-.71c-.054-.042-.113,0-.149.054a2.085,2.085,0,0,1-.952.794.648.648,0,0,1-.659-.214.846.846,0,0,1-.11-.225l0,0c-.144.062-1.366.58-1.211.338a8.741,8.741,0,0,1,1.268-.865c.034-.107.093-.462.273-.577h0v0h0c0,.034-.031.214-.028.293a.773.773,0,0,1,0,.085v0h0v0h0v0h0v0l0,0a3.215,3.215,0,0,0,.625-.586.5.5,0,0,0,.017-.273h0c-.1-.268-.251-.29-.3-.422-.048-.177-.025-.377.076-.434a.2.2,0,0,1,.29.017.9.9,0,0,1,.239.439c-.02.059-.138-.031-.186-.008h0a.592.592,0,0,1,.144.287.883.883,0,0,1-.025.62,1.963,1.963,0,0,1-.831.862h0a.212.212,0,0,0,.09.2h0a.419.419,0,0,0,.344,0,2.016,2.016,0,0,0,.828-.865,1.884,1.884,0,0,0-.087-.823c-.107-.242-.231-.592-.234-.608-.006-.152.006-.208.073-.284a.763.763,0,0,0,.076-.068h0s0,0,.006,0h0Zm-3.639-1.363c.158.076.451.045.439-.208,0-.023-.006-.1-.008-.118-.031-.073-.118-.056-.138.023-.008.025.008.065-.011.079s-.065,0-.062-.065a.114.114,0,0,0-.025-.059.048.048,0,0,0-.037-.011c-.02,0-.02.008-.031.025a.2.2,0,0,0-.014.059c0,.025-.011.034-.031.037s-.014,0-.031-.008-.023-.014-.023-.034a.218.218,0,0,0-.008-.062.059.059,0,0,0-.039-.02c-.084,0-.09.1-.087.135-.006.006-.008.18.107.228Zm4.577,1.938c.158.073.53.034.439-.208,0-.023-.006-.1-.008-.118-.031-.073-.118-.056-.138.023-.006.023.011.065-.011.079s-.065,0-.062-.065a.152.152,0,0,0-.025-.062.064.064,0,0,0-.037-.008c-.02,0-.02.008-.031.025a.2.2,0,0,0-.011.059c-.006.023-.014.034-.031.037s-.017,0-.034-.008-.023-.014-.023-.034a.221.221,0,0,0-.008-.062.059.059,0,0,0-.039-.02c-.084,0-.09.1-.084.132-.006.008-.011.183.1.231Zm2.67-.8c.155.073.451.042.437-.211,0-.023-.006-.1-.006-.116-.034-.076-.121-.056-.138.02-.009.025.008.065-.014.079s-.062.006-.059-.065a.107.107,0,0,0-.028-.059c-.008-.008-.014-.008-.034-.008s-.02.006-.034.023a.434.434,0,0,0-.011.059c0,.025-.011.034-.031.037s-.014,0-.031-.008-.023-.014-.023-.031a.228.228,0,0,0-.008-.065.175.175,0,0,0-.039-.02c-.085,0-.093.1-.087.135-.006.009-.009.18.107.231Zm1.383,2.011a.95.95,0,0,0-.09.927.708.708,0,0,0,.335.38.237.237,0,0,0,.352-.037c.16-.166.16-.589.236-.673a.141.141,0,0,1,.251-.059.6.6,0,0,0,.225.194.382.382,0,0,0,.5.037.57.57,0,0,0,.268-.327,12.059,12.059,0,0,0,.02-1.915c-.006-.045-.155-.789-.155-.794s-.02-.38-.037-.468c0-.037-.011-.048.028-.042a.217.217,0,0,0,.068.048c.042.008.076-.062.053-.124-.124-.231-.251-.459-.372-.687-.031-.031-.07-.062-.118.009a.271.271,0,0,0-.093.2c.014.163.042.33.053.493.048.276.1.558.149.834.045.6.056,1.144.1,1.738-.006.254-.085.589-.158.62,0,0-.113.065-.189-.008a2.217,2.217,0,0,1-.273-.363.166.166,0,0,0-.265,0,3.652,3.652,0,0,0-.467.882c-.037.062-.146.113-.268-.006a1.235,1.235,0,0,1-.163-.859Zm-1.313-3.473c-.084-.023-.206.028-.166.144-.02.053.169.239.2.341.056.155-.04.3.017.327s.127-.161.155-.332a.506.506,0,0,0-.206-.479Zm1.763,3.642a4.435,4.435,0,0,0-.028-.749c-.011-.2-.228-1.82-.273-1.972-.051-.284.214-.037.183-.2-.09-.211-.318-.518-.389-.7-.045-.079-.025-.149-.124-.02a1.58,1.58,0,0,0-.084.71,15.613,15.613,0,0,1,.428,3.428c.107,0,.234-.248.287-.5Zm2.389-3.236a.12.12,0,0,0-.152.155c-.017.059.158.259.186.372.025.076-.039.327.014.352s.115-.175.141-.361c.014-.1-.059-.456-.189-.518Zm-9.478,2.594c-.076-.017-.177,0-.144.116-.006.059.166.132.175.27.025.056-.037.242.014.259s.11-.127.135-.262c.014-.076-.056-.338-.18-.383ZM217,303.793c-.076-.014-.18.025-.144.121-.017.045.135.2.161.282.023.059-.023.251.025.268s.11-.132.135-.273c.011-.079,0-.341-.177-.4Zm3.555,1.248a.324.324,0,0,0-.107.428.211.211,0,0,0,.225.07c.135.02.214-.253.214-.253s.006-.076-.155.07c-.068.011-.076-.014-.093-.051a.352.352,0,0,1,.02-.214c.025-.068-.028-.1-.1-.051Zm1.034-1.349a.5.5,0,0,0-.211.355c0,.093-.023.093.039.152.045.065.09.059.177.011a.185.185,0,0,0,.085-.127c.023-.1-.11.051-.127-.068s.056-.152.135-.259c0-.07,0-.124-.1-.065Zm.837.149a2.139,2.139,0,0,0-.062.411c-.023.1.11.146.169.014a1.233,1.233,0,0,0,.1-.448c-.028-.158-.135-.152-.2.022Zm5.262,2.676c-.073.065-.037.29,0,.265a2.922,2.922,0,0,0,.763-.532c.034,0,.051-.29-.023-.262,0,0-.724.513-.741.53Zm.659,0a.125.125,0,0,0-.146.169c-.017.059.09.265.118.375.025.079-.034.3.02.324s.177-.132.172-.33c.014-.1-.037-.476-.163-.538Zm-4.3,1.605c-.031.023-.028.045-.017.085s.065.039.113.011c.062-.008.093.034.087.11a.138.138,0,0,0,.014.135.105.105,0,0,0,.132.017,2.861,2.861,0,0,1,.459-.161c.056,0,.054-.149-.037-.155a.524.524,0,0,0-.335.1c-.07.017-.082-.025-.1-.065-.02-.1.037-.163.025-.234a.143.143,0,0,0-.138-.025,1,1,0,0,0-.208.18Zm5.064.2c.031.037.051.073,0,.141-.051.045-.085.07-.138.116-.023.042-.037.1.037.124.135.039.445-.163.445-.169a.093.093,0,0,0,.031-.11c-.031-.034-.1-.014-.141-.02-.023,0-.09-.011-.056-.073a.481.481,0,0,0,.056-.107c.02-.048,0-.079-.073-.1a.639.639,0,0,0-.194,0c-.048.008-.065.031-.073.087.006.084.056.079.11.115Z" transform="translate(-210.344 -295.877)" fill="#fefefe"/>
  </g>
</svg>
