<svg width="13" height="12" viewBox="0 0 13 12" fill="none" xmlns="http://www.w3.org/2000/svg">
<g clip-path="url(#clip0_60_4833)">
<path d="M9.03792 6.8147L9.03375 6.84944C8.01519 6.34178 7.90865 6.27415 7.77711 6.47147C7.68586 6.60811 7.41998 6.91799 7.33985 7.0097C7.25879 7.10003 7.17819 7.10697 7.04063 7.04444C6.90167 6.97496 6.45561 6.82906 5.92757 6.3566C5.51625 5.98836 5.24019 5.53674 5.15867 5.39779C5.02295 5.16341 5.30689 5.13006 5.56535 4.64093C5.61167 4.54366 5.58805 4.46723 5.55377 4.39821C5.51903 4.32873 5.2425 3.64784 5.12671 3.37641C5.01554 3.1059 4.90113 3.14018 4.81544 3.14018C4.54864 3.11702 4.35363 3.12072 4.18179 3.29952C3.43419 4.12122 3.62271 4.96887 4.26239 5.87024C5.5195 7.51551 6.18927 7.81844 7.41396 8.23902C7.74468 8.34417 8.04622 8.32934 8.28477 8.29507C8.55064 8.25292 9.10323 7.9611 9.21857 7.63455C9.33668 7.308 9.33668 7.03703 9.30194 6.9745C9.26767 6.91197 9.17688 6.87723 9.03792 6.8147Z" fill="#1F3E63"/>
<path d="M10.4336 1.78514C6.87208 -1.65779 0.977932 0.839293 0.975616 5.69635C0.975616 6.66721 1.22991 7.61398 1.71441 8.45004L0.928833 11.3042L3.86317 10.5391C7.52472 12.5169 12.0436 9.89058 12.0455 5.69913C12.0455 4.22802 11.4711 2.84354 10.4266 1.8032L10.4336 1.78514ZM11.12 5.68384C11.1173 9.21941 7.23615 11.4275 4.16656 9.62285L3.99981 9.52373L2.26283 9.97534L2.72834 8.287L2.61764 8.1133C0.707426 5.07243 2.90204 1.09822 6.52052 1.09822C7.74984 1.09822 8.90365 1.57763 9.77261 2.44611C10.6411 3.30719 11.12 4.46101 11.12 5.68384Z" fill="#1F3E63"/>
</g>
<defs>
<clipPath id="clip0_60_4833">
<rect width="11.1167" height="11.1167" fill="white" transform="translate(0.928833 0.187775)"/>
</clipPath>
</defs>
</svg>
