<svg width="30" height="31" viewBox="0 0 30 31" fill="none" xmlns="http://www.w3.org/2000/svg">
<path d="M26.1155 17C25.7855 17 25.4405 16.895 25.1105 16.82C24.4428 16.6707 23.7862 16.4752 23.1455 16.235C22.4496 15.9818 21.6847 15.995 20.998 16.2719C20.3112 16.5488 19.7511 17.0699 19.4255 17.735L19.0955 18.425C17.6387 17.5988 16.2929 16.5907 15.0905 15.425C13.9248 14.2225 12.9167 12.8768 12.0905 11.42L12.7805 11.105C13.4456 10.7794 13.9667 10.2193 14.2436 9.53252C14.5205 8.84576 14.5337 8.08085 14.2805 7.38499C14.0423 6.73853 13.8469 6.0771 13.6955 5.40498C13.6205 5.07499 13.5605 4.72998 13.5155 4.39998C13.3333 3.34341 12.7799 2.3866 11.9549 1.70184C11.1299 1.01709 10.0875 0.649398 9.0155 0.664985H4.5005C3.86637 0.664154 3.23923 0.797357 2.66018 1.05586C2.08113 1.31436 1.56325 1.69233 1.1405 2.16498C0.708982 2.65047 0.387675 3.22361 0.198657 3.84504C0.00963905 4.46647 -0.0426091 5.12145 0.0455021 5.76499C0.860883 12.0082 3.71332 17.808 8.1605 22.265C12.6175 26.7122 18.4173 29.5646 24.6605 30.38C24.8552 30.3949 25.0508 30.3949 25.2455 30.38C26.3516 30.3816 27.4196 29.9758 28.2455 29.24C28.7182 28.8172 29.0961 28.2994 29.3546 27.7203C29.6131 27.1413 29.7463 26.5141 29.7455 25.88V21.38C29.7374 20.3435 29.3718 19.3417 28.7104 18.5436C28.049 17.7456 27.1324 17.2003 26.1155 17ZM26.8505 26C26.85 26.2093 26.8057 26.4162 26.7205 26.6074C26.6352 26.7985 26.5109 26.9697 26.3555 27.11C26.1911 27.2598 25.9955 27.3711 25.7827 27.436C25.57 27.5008 25.3455 27.5176 25.1255 27.485C19.5279 26.7539 14.3259 24.203 10.3205 20.225C6.31171 16.2162 3.73855 10.996 3.0005 5.37499C2.96792 5.15499 2.98466 4.93049 3.04951 4.71776C3.11437 4.50503 3.22572 4.30938 3.3755 4.14498C3.51743 3.98771 3.69107 3.86229 3.88497 3.77697C4.07888 3.69165 4.28866 3.64837 4.5005 3.64998H9.0005C9.34725 3.64151 9.68621 3.75346 9.9597 3.96678C10.2332 4.18011 10.4243 4.48161 10.5005 4.81999C10.5005 5.22499 10.6355 5.64498 10.7255 6.04998C10.8989 6.83578 11.1295 7.60784 11.4155 8.35998L9.3155 9.34999C8.95455 9.51568 8.67404 9.81776 8.5355 10.19C8.38548 10.5552 8.38548 10.9648 8.5355 11.33C10.6943 15.9541 14.4114 19.6712 19.0355 21.83C19.4007 21.98 19.8103 21.98 20.1755 21.83C20.5477 21.6914 20.8498 21.4109 21.0155 21.05L21.9605 18.95C22.7344 19.2322 23.5261 19.4627 24.3305 19.64C24.7205 19.73 25.1405 19.805 25.5455 19.865C25.8839 19.9412 26.1854 20.1323 26.3987 20.4058C26.612 20.6793 26.724 21.0182 26.7155 21.365L26.8505 26ZM18.0005 0.499985C17.6555 0.499985 17.2955 0.499985 16.9505 0.499985C16.5527 0.5338 16.1846 0.724265 15.9272 1.02948C15.6698 1.3347 15.5442 1.72966 15.578 2.12748C15.6118 2.52531 15.8023 2.89341 16.1075 3.1508C16.4127 3.4082 16.8077 3.5338 17.2055 3.49998H18.0005C20.3874 3.49998 22.6766 4.4482 24.3645 6.13602C26.0523 7.82385 27.0005 10.113 27.0005 12.5C27.0005 12.77 27.0005 13.025 27.0005 13.295C26.9672 13.6907 27.0923 14.0835 27.3481 14.3871C27.604 14.6908 27.9699 14.8806 28.3655 14.915H28.4855C28.861 14.9165 29.2234 14.7771 29.5012 14.5244C29.7789 14.2717 29.9517 13.924 29.9855 13.55C29.9855 13.205 29.9855 12.845 29.9855 12.5C29.9855 9.31998 28.7233 6.27001 26.4761 4.02C24.2289 1.77 21.1805 0.50396 18.0005 0.499985ZM21.0005 12.5C21.0005 12.8978 21.1585 13.2793 21.4398 13.5606C21.7211 13.842 22.1027 14 22.5005 14C22.8983 14 23.2799 13.842 23.5612 13.5606C23.8425 13.2793 24.0005 12.8978 24.0005 12.5C24.0005 10.9087 23.3684 9.38256 22.2431 8.25734C21.1179 7.13213 19.5918 6.49999 18.0005 6.49999C17.6027 6.49999 17.2211 6.65802 16.9398 6.93933C16.6585 7.22063 16.5005 7.60216 16.5005 7.99999C16.5005 8.39781 16.6585 8.77934 16.9398 9.06065C17.2211 9.34195 17.6027 9.49999 18.0005 9.49999C18.7962 9.49999 19.5592 9.81606 20.1218 10.3787C20.6844 10.9413 21.0005 11.7043 21.0005 12.5Z" fill="#4D7785"/>
</svg>
