<svg width="37" height="29" viewBox="0 0 37 29" fill="none" xmlns="http://www.w3.org/2000/svg">
<path d="M3.73 28.5C2.81 28.5 2.042 28.1865 1.426 27.5595C0.808667 26.9311 0.5 26.1488 0.5 25.2123V3.28768C0.5 2.35125 0.808667 1.56954 1.426 0.942535C2.042 0.314178 2.81 0 3.73 0H33.27C34.19 0 34.958 0.314178 35.574 0.942535C36.1913 1.56954 36.5 2.35125 36.5 3.28768V25.2123C36.5 26.1488 36.192 26.9305 35.576 27.5575C34.9587 28.1858 34.19 28.5 33.27 28.5H3.73ZM18.5 14.4841L2.5 3.83732V25.2123C2.5 25.5774 2.61533 25.8773 2.846 26.1121C3.07667 26.3469 3.37133 26.4643 3.73 26.4643H33.27C33.6287 26.4643 33.9233 26.3469 34.154 26.1121C34.3847 25.8773 34.5 25.5774 34.5 25.2123V3.83732L18.5 14.4841ZM18.5 12.2143L33.884 2.03571H3.116L18.5 12.2143ZM2.5 3.83732V2.03571V25.2123C2.5 25.5774 2.61533 25.8773 2.846 26.1121C3.07667 26.3469 3.37133 26.4643 3.73 26.4643H2.5V3.83732Z" fill="#4D7785"/>
</svg>
