<svg width="35" height="35" viewBox="0 0 35 35" fill="none" xmlns="http://www.w3.org/2000/svg">
<path fill-rule="evenodd" clip-rule="evenodd" d="M9.50885 17.3656C8.9241 16.3064 8.62568 15.3128 8.62568 14.3899C8.62568 13.3411 8.90512 12.4597 9.45366 11.692C9.62436 11.4508 9.816 11.2251 10.0263 11.0176L10.1091 10.9313L10.1229 10.9175L10.1057 10.933L10.1298 10.9106C10.2878 10.7376 10.4794 10.5986 10.693 10.5022C10.9066 10.4058 11.1375 10.354 11.3718 10.35C11.7254 10.35 11.9669 10.3534 12.1774 10.3638H12.2584C12.7155 10.3638 12.9588 10.5156 13.2123 11.0331L13.2434 11.0969L13.2779 11.1728L13.8402 12.4959C14.2853 13.5447 14.4991 14.0398 14.5474 14.1346C14.7199 14.4658 14.7303 14.7263 14.5819 15.0144L14.5216 15.1317L14.456 15.2611C14.3716 15.4279 14.2655 15.5828 14.1404 15.7216L13.9316 15.9649C13.7591 16.1684 13.6763 16.2633 13.6039 16.3392L13.1951 16.7704L13.5142 17.2724C14.1059 18.2039 14.8252 19.0612 15.6273 19.7547C16.2931 20.3274 16.9727 20.7897 17.6989 21.1623C17.9611 21.2986 18.4838 21.5314 18.8892 21.7057L19.3808 21.9161L19.7378 21.5142C20.2226 20.9691 20.7211 20.3722 20.9039 20.1083C21.1989 19.6805 21.4455 19.6219 22.0545 19.8358C22.3304 19.9341 23.7501 20.5896 24.9093 21.1502L25.2473 21.3089C25.3733 21.3693 25.4474 21.4072 25.5147 21.4469C25.6527 21.5297 25.7269 21.5987 25.7838 21.6884C25.9529 21.961 25.8925 22.8597 25.5596 23.7653C25.2473 24.6088 23.7415 25.63 22.6064 25.7939C21.6094 25.9388 20.7659 25.8905 19.9121 25.6283C19.103 25.3872 18.3072 25.1033 17.5282 24.7779C16.1137 24.1862 14.7389 23.2858 13.4159 22.0972C12.3628 21.1495 11.4102 20.0957 10.5732 18.9526L10.3558 18.6593C10.0403 18.2507 9.75709 17.8182 9.50885 17.3656ZM4.21324 30.2841L9.52783 28.6885C12.3716 30.6081 15.8286 31.3995 19.2243 30.9082C22.62 30.4169 25.7109 28.6783 27.894 26.0314C30.0772 23.3844 31.1961 20.0191 31.0324 16.5919C30.8686 13.1647 29.4341 9.92134 27.0085 7.4946C24.583 5.06786 21.3404 3.63176 17.9133 3.46644C14.4863 3.30113 11.1205 4.41845 8.47265 6.60046C5.82479 8.78246 4.08472 11.8727 3.59189 15.2682C3.09907 18.6638 3.88882 22.1211 5.8071 24.9659L4.21324 30.2841ZM2.06395 25.4386C0.705493 22.9233 -0.00362452 20.1087 0.000902914 17.25C0.000902914 7.72282 7.72353 0 17.2505 0C26.7757 0 34.5 7.72282 34.5 17.25C34.5 26.7772 26.7757 34.5 17.2505 34.5C14.3892 34.5046 11.5721 33.7942 9.05519 32.4334L2.44344 34.4172C2.11518 34.5158 1.76634 34.5237 1.43397 34.4399C1.1016 34.3562 0.798113 34.184 0.55575 33.9417C0.313387 33.6993 0.141199 33.3958 0.0574765 33.0634C-0.026246 32.731 -0.0183758 32.3822 0.0802508 32.0539L2.06395 25.4386Z" fill="#4D7785"/>
</svg>
